<?xml version="1.0" encoding="UTF-8"?>
<svg width="15px" height="13px" viewBox="0 0 15 13" version="1.1" xmlns="http://www.w3.org/2000/svg" xmlns:xlink="http://www.w3.org/1999/xlink">
    <!-- Generator: Sketch Beta 42 (36679) - http://www.bohemiancoding.com/sketch -->
    <title>mail</title>
    <desc>Created with Sketch Beta.</desc>
    <defs></defs>
    <g id="Page-1" stroke="none" stroke-width="1" fill="none" fill-rule="evenodd">
        <g id="Contact-Page" transform="translate(-1252.000000, -921.000000)" fill="#607CB3">
            <g id="03-CONTACT-INFORMAtiON" transform="translate(1235.000000, 763.000000)">
                <g id="Mail-Icon" transform="translate(0.000000, 140.000000)">
                    <g id="mail" transform="translate(17.000000, 18.000000)">
                        <path d="M14.612381,2 C14.4795833,2 14.3799405,2.07145372 14.3433333,2.10216414 L7.89029762,7.92986338 C7.76494048,8.04585332 7.60809524,8.1071518 7.43672619,8.1071518 C7.26488095,8.1071518 7.10220238,8.0443851 6.97595238,7.92778339 L0.719166667,2.295236 C0.666785714,2.24421511 0.542916667,2.14315214 0.385535714,2.14315214 C0.346071429,2.14315214 0,2.15703912 0,2.63678233 L0,11.2837223 C0,11.8468486 0.44202381,12.3049966 0.985416667,12.3049966 L14.0328571,12.3049966 C14.5751786,12.3049966 15,11.8563921 15,11.2837223 L15,2.50292896 C14.9999405,2.01413169 14.6520238,2 14.612381,2 Z" id="Shape"></path>
                        <path d="M1.17663827,0.737630332 L7.03002167,5.92782938 C7.08419559,5.98140284 7.2643695,6.13632227 7.53750784,6.13632227 C7.7985276,6.13632227 7.9832944,5.98265403 8.01782405,5.95177251 L13.9403221,0.6412891 L13.9477371,0.634407583 C14.0283063,0.556720379 14.1959189,0.395090047 14.1161244,0.187677725 C14.0721877,0.0736492891 13.9648359,0 13.8424881,0 L1.36732602,0 C1.21742088,0 1.08428254,0.0875260664 1.02800586,0.222995261 C0.989934717,0.31478673 0.957341832,0.502464455 1.16756318,0.727905213 L1.17663827,0.737630332 Z" id="Shape"></path>
                    </g>
                </g>
            </g>
        </g>
    </g>
</svg>