<?xml version="1.0" encoding="UTF-8"?>
<svg width="16px" height="15px" viewBox="0 0 16 15" version="1.1" xmlns="http://www.w3.org/2000/svg" xmlns:xlink="http://www.w3.org/1999/xlink">
    <!-- Generator: Sketch Beta 42 (36679) - http://www.bohemiancoding.com/sketch -->
    <title>Shape</title>
    <desc>Created with Sketch Beta.</desc>
    <defs></defs>
    <g id="Page-1" stroke="none" stroke-width="1" fill="none" fill-rule="evenodd">
        <g id="Contact-Page" transform="translate(-1251.000000, -783.000000)" fill="#607CB3">
            <g id="03-CONTACT-INFORMAtiON" transform="translate(1235.000000, 763.000000)">
                <g id="Phone-Icon" transform="translate(0.000000, 3.000000)">
                    <path d="M23.4041012,23.4021108 C22.1156886,23.4021108 20.9078019,23.6472545 19.6999151,23.9741126 L19.6999151,26.5072636 C19.6999151,26.8340897 19.5388636,27.0792654 19.2167604,27.2426625 C18.4115026,27.6512352 17.6867705,28.1415545 17.0425643,28.7952389 C16.8815127,28.9587 16.7204611,29.0403825 16.4788838,29.0403825 C16.2373064,29.0403825 16.0762549,28.958668 15.9152033,28.7952389 L13.9020587,26.7524072 C13.8215329,26.5889781 13.7410071,26.4255491 13.7410071,26.1804054 C13.7410071,25.9352618 13.8215329,25.7718327 13.9825845,25.6083715 C16.398358,23.2386497 19.7804409,21.7677878 23.4041012,21.7677878 C27.0277615,21.7677878 30.4098444,23.2386497 32.8256179,25.6083715 C32.9867011,25.7718327 33.0671953,25.9352297 33.0671953,26.1804054 C33.0671953,26.425517 32.9866695,26.5889781 32.8256179,26.7524072 L30.8124733,28.7952709 C30.6514218,28.9587321 30.4904018,29.0404146 30.2487928,29.0404146 C30.0071839,29.0404146 29.8461639,28.9587 29.6851123,28.7952709 C29.0409061,28.2232691 28.3161424,27.6512673 27.5108846,27.2426945 C27.2693388,27.0792654 27.0277299,26.8341218 27.0277299,26.5072956 L27.0277299,23.9741447 C25.9004005,23.6472545 24.6925137,23.4021108 23.4041012,23.4021108 Z" id="Shape" transform="translate(23.404101, 25.404101) rotate(-135.000000) translate(-23.404101, -25.404101) "></path>
                </g>
            </g>
        </g>
    </g>
</svg>