<svg xmlns="http://www.w3.org/2000/svg" xmlns:xlink="http://www.w3.org/1999/xlink" version="1.1" width="24" height="24" enable-background="new 0 0 24 24" xml:space="preserve" style=""><rect id="backgroundrect" width="100%" height="100%" x="0" y="0" fill="none" stroke="none"/>

<g class="currentLayer" style=""><title>Layer 1</title><path d="M11.5,0c-4.411,0-8,3.588-8,8c0,4.244,7.272,15.307,7.583,15.775C11.175,23.914,11.332,24,11.5,24s0.324-0.086,0.417-0.225  C12.227,23.307,19.5,12.244,19.5,8C19.5,3.588,15.911,0,11.5,0z M11.5,11.5C9.57,11.5,8,9.93,8,8s1.57-3.5,3.5-3.5S15,6.07,15,8  S13.43,11.5,11.5,11.5z" id="svg_1" class="selected" fill="#06d19c" fill-opacity="1" opacity="1"/></g></svg>