<?xml version="1.0" encoding="utf-8"?>
<!-- Generator: Adobe Illustrator 16.2.1, SVG Export Plug-In . SVG Version: 6.00 Build 0)  -->
<!DOCTYPE svg PUBLIC "-//W3C//DTD SVG 1.1//EN" "http://www.w3.org/Graphics/SVG/1.1/DTD/svg11.dtd">
<svg version="1.1" id="Filled_Version" xmlns="http://www.w3.org/2000/svg" xmlns:xlink="http://www.w3.org/1999/xlink" x="0px"
	 y="0px" width="24px" height="24px" viewBox="0 0 24 24" enable-background="new 0 0 24 24" xml:space="preserve">
<path d="M11.5,0c-4.411,0-8,3.588-8,8c0,4.244,7.272,15.307,7.583,15.775C11.175,23.914,11.332,24,11.5,24s0.324-0.086,0.417-0.225
	C12.227,23.307,19.5,12.244,19.5,8C19.5,3.588,15.911,0,11.5,0z M11.5,11.5C9.57,11.5,8,9.93,8,8s1.57-3.5,3.5-3.5S15,6.07,15,8
	S13.43,11.5,11.5,11.5z"/>
</svg>
